{
  "title": "Suits S05 Season 5 720p 5.1Ch Web-DL ReEnc-DeeJayAhmed",
  "uid": 13753989,
  "size": 5851844981,
  "categoryP": "video",
  "categoryS": "hd___tv_shows",
  "magnet": "?xt=urn:btih:b3a4b6e1c98bb7eac9689f3109170727c720575a&amp;dn=Suits+S05+Season+5+720p+5.1Ch+Web-DL+ReEnc-DeeJayAhmed&amp;tr=udp%3A%2F%2Ftracker.leechers-paradise.org%3A6969&amp;tr=udp%3A%2F%2Fzer0day.ch%3A1337&amp;tr=udp%3A%2F%2Fopen.demonii.com%3A1337&amp;tr=udp%3A%2F%2Ftracker.coppersurfer.tk%3A6969&amp;tr=udp%3A%2F%2Fexodus.desync.com%3A6969",
  "seeders": 114,
  "leechers": 52,
  "uploader": "DeeJayPirate",
  "files": 34,
  "time": 1457181505,
  "description": "DeeJayAhmed  \nhttps://www.DeeJayAhmed.com\r\r\nKeep Seeding!!=)) \r\nDo Comment On The A/V Quality Considering The Size Of The File..!\r\nHelp Me By Donating Bitcoins : 14i1UCWye2SCjoAHR5u6LDswWgAy55dxAv\r\n\r\nVideo \r\nID : 1 \r\nFormat : AVC \r\nFormat/Info : Advanced Video Codec \r\nFormat profile :    \r\nFormat settings, CABAC : Yes \r\nFormat settings, ReFrames : 8 frames \r\nCodec ID : V_MPEG4/ISO/AVC \r\nDuration : 42mn 7s \r\nBit rate : 948 Kbps \r\nWidth : 1 280 pixels \r\nHeight : 720 pixels \r\nDisplay aspect ratio : 16:9 \r\nFrame rate mode : Constant \r\nFrame rate : 23.976 (24000/1001) fps \r\nColor space : YUV \r\nChroma subsampling : 4:2:0 \r\nBit depth : 8 bits \r\nScan type : Progressive \r\nBits/(Pixel*Frame) : 0.043 \r\nStream size : 286 MiB (84%)\r\nDefault : Yes \r\nForced : No \r\n\r\nAudio \r\nID : 2 \r\nFormat : AAC \r\nFormat/Info : Advanced Audio Codec \r\nFormat profile : HE-AAC / LC \r\nCodec ID : A_AAC \r\nDuration : 42mn 7s \r\nBit rate : 180 Kbps \r\nChannel(s) : 6 channels \r\nChannel positions : Front: L C R, Side: L R, LFE \r\nSampling rate : 48.0 KHz / 24.0 KHz \r\nFrame rate : 23.438 fps (1024 spf) \r\nCompression mode : Lossy \r\nDelay relative to video : 31ms \r\nStream size : 54.1 MiB (16%) \r\nLanguage : English \r\nDefault : Yes \r\nForced : No",
  "parsed": {
    "xt": "urn:btih:b3a4b6e1c98bb7eac9689f3109170727c720575a",
    "dn": "Suits S05 Season 5 720p 5.1Ch Web-DL ReEnc-DeeJayAhmed",
    "tr": [
      "udp://exodus.desync.com:6969",
      "udp://open.demonii.com:1337",
      "udp://tracker.coppersurfer.tk:6969",
      "udp://tracker.leechers-paradise.org:6969",
      "udp://zer0day.ch:1337"
    ],
    "infoHash": "b3a4b6e1c98bb7eac9689f3109170727c720575a",
    "infoHashBuffer": {
      "type": "Buffer",
      "data": [
        179,
        164,
        182,
        225,
        201,
        139,
        183,
        234,
        201,
        104,
        159,
        49,
        9,
        23,
        7,
        39,
        199,
        32,
        87,
        90
      ]
    },
    "name": "Suits S05 Season 5 720p 5.1Ch Web-DL ReEnc-DeeJayAhmed",
    "announce": [
      "udp://exodus.desync.com:6969",
      "udp://open.demonii.com:1337",
      "udp://tracker.coppersurfer.tk:6969",
      "udp://tracker.leechers-paradise.org:6969",
      "udp://zer0day.ch:1337"
    ],
    "urlList": []
  },
  "previous": 166,
  "peers": 111,
  "last_updated": "2016-12-25T11:33:42.954Z"
}